<svg width="35" height="35" viewBox="0 0 35 35" fill="none" xmlns="http://www.w3.org/2000/svg">
<path d="M23.6835 11.3167C24.497 12.1293 25.1424 13.0943 25.5827 14.1566C26.0231 15.2188 26.2497 16.3574 26.2497 17.5073C26.2497 18.6572 26.0231 19.7958 25.5827 20.858C25.1424 21.9202 24.497 22.8853 23.6835 23.6979M11.3168 23.6833C10.5033 22.8707 9.85787 21.9057 9.41753 20.8434C8.9772 19.7812 8.75055 18.6426 8.75055 17.4927C8.75055 16.3428 8.9772 15.2042 9.41753 14.142C9.85787 13.0797 10.5033 12.1147 11.3168 11.3021M27.8106 7.18958C30.5445 9.92435 32.0804 13.633 32.0804 17.5C32.0804 21.367 30.5445 25.0756 27.8106 27.8104M7.18972 27.8104C4.45577 25.0756 2.91992 21.367 2.91992 17.5C2.91992 13.633 4.45577 9.92435 7.18972 7.18958M20.4168 17.5C20.4168 19.1108 19.111 20.4167 17.5001 20.4167C15.8893 20.4167 14.5835 19.1108 14.5835 17.5C14.5835 15.8892 15.8893 14.5833 17.5001 14.5833C19.111 14.5833 20.4168 15.8892 20.4168 17.5Z" stroke="#025A63" stroke-width="2" stroke-linecap="round" stroke-linejoin="round"/>
</svg>